<svg width="979" height="186" viewBox="0 0 979 186" fill="none" xmlns="http://www.w3.org/2000/svg">
<path d="M899.383 101.246V161.5H928.191V101.441L979 10L931 24.5L940.754 30L935.491 39.0635L923.455 59.791L899.383 101.246Z" fill="#4A5568"/>
<path d="M893.323 91.665L908.714 65.0225L908.629 64.8868L908.461 64.6155L908.123 64.0728L907.448 62.9873L906.097 60.8164L897.674 46.6562L880.828 18.3359H846.941L873.162 59.791L886.272 80.5186L892.828 90.8823L893.237 91.5301L893.323 91.665Z" fill="#4A5568"/>
<path d="M795.573 107.183V83.3958H857V139.639C851.031 145.417 842.365 150.521 831.004 154.951C819.708 159.317 808.25 161.5 796.632 161.5C781.869 161.5 769 158.418 758.024 152.255C747.048 146.027 738.8 137.167 733.28 125.674C727.76 114.117 725 101.566 725 88.0185C725 73.3157 728.081 60.2502 734.243 48.8219C740.405 37.3936 749.423 28.6297 761.298 22.5303C770.348 17.8434 781.613 15.5 795.092 15.5C812.615 15.5 826.287 19.1917 836.107 26.5752C845.992 33.8945 852.346 44.0387 855.171 57.0079L826.864 62.3048C824.875 55.3707 821.12 49.9134 815.6 45.9327C810.144 41.8879 803.308 39.8654 795.092 39.8654C782.64 39.8654 772.723 43.814 765.341 51.7111C758.024 59.6082 754.365 71.3254 754.365 86.8628C754.365 103.62 758.088 116.204 765.534 124.615C772.98 132.961 782.736 137.135 794.803 137.135C800.772 137.135 806.742 135.979 812.711 133.668C818.745 131.292 823.912 128.435 828.212 125.096V107.183H795.573Z" fill="#4A5568"/>
<path d="M576 89.3668C576 74.9851 578.152 62.9147 582.455 53.1557C585.666 45.9648 590.034 39.5123 595.558 33.7982C601.146 28.084 607.247 23.8465 613.863 21.0858C622.662 17.3619 632.81 15.5 644.307 15.5C665.117 15.5 681.753 21.9525 694.213 34.8575C706.738 47.7625 713 65.7076 713 88.6926C713 111.485 706.802 129.334 694.406 142.239C682.01 155.08 665.439 161.5 644.693 161.5C623.69 161.5 606.99 155.112 594.594 142.335C582.198 129.494 576 111.838 576 89.3668ZM605.385 88.4037C605.385 104.391 609.078 116.525 616.464 124.807C623.85 133.026 633.228 137.135 644.596 137.135C655.965 137.135 665.278 133.058 672.536 124.904C679.858 116.686 683.519 104.391 683.519 88.0185C683.519 71.8391 679.954 59.7687 672.825 51.8074C665.76 43.8461 656.35 39.8654 644.596 39.8654C632.842 39.8654 623.369 43.9103 616.175 52C608.981 60.0255 605.385 72.1601 605.385 88.4037Z" fill="#4A5568"/>
<path d="M476.973 161.5V19.5078H505.879V137.379H577.754V161.5H476.973Z" fill="#4A5568"/>
<path d="M328 89.3668C328 74.9851 330.152 62.9147 334.455 53.1557C337.666 45.9648 342.034 39.5123 347.558 33.7982C353.146 28.084 359.247 23.8465 365.863 21.0858C374.662 17.3619 384.81 15.5 396.307 15.5C417.117 15.5 433.753 21.9525 446.213 34.8575C458.738 47.7625 465 65.7076 465 88.6926C465 111.485 458.802 129.334 446.406 142.239C434.01 155.08 417.439 161.5 396.693 161.5C375.69 161.5 358.99 155.112 346.594 142.335C334.198 129.494 328 111.838 328 89.3668ZM357.385 88.4037C357.385 104.391 361.078 116.525 368.464 124.807C375.85 133.026 385.228 137.135 396.596 137.135C407.965 137.135 417.278 133.058 424.536 124.904C431.858 116.686 435.519 104.391 435.519 88.0185C435.519 71.8391 431.954 59.7687 424.825 51.8074C417.76 43.8461 408.35 39.8654 396.596 39.8654C384.842 39.8654 375.369 43.9103 368.175 52C360.981 60.0255 357.385 72.1601 357.385 88.4037Z" fill="#4A5568"/>
<g filter="url(#filter0_d_4009_85)">
<path d="M338.21 16.0454V161.5H311.648L248.367 69.9517H247.301V110.5L216.548 108V16.0454H243.537L306.321 107.523H307.599V16.0454H338.21Z" fill="#2D3748"/>
</g>
<path d="M216.494 107.878L247.247 110.506C247.247 121.112 244.713 130.392 239.647 138.347C234.628 146.301 227.597 152.504 218.553 156.955C209.51 161.358 198.975 163.56 186.948 163.56C174.874 163.56 164.316 161.358 155.272 156.955C146.229 152.504 139.197 146.301 134.178 138.347C129.159 130.392 126.65 121.112 126.65 110.506V93.5L157.403 16.7545V107.878C157.403 113.418 158.61 118.342 161.025 122.651C163.487 126.959 166.943 130.345 171.394 132.807C175.845 135.269 181.03 136.5 186.948 136.5C192.914 136.5 198.099 135.269 202.502 132.807C206.953 130.345 210.386 126.959 212.8 122.651C215.263 118.342 216.494 113.418 216.494 107.878Z" fill="#2D3748"/>
<path d="M37.9261 16.5H0V161.955H29.8295V66.9261H31.0369L68.679 161.244H88.9915L126.634 67.2812L147 16.5L124.5 27L101.5 37.5L109.73 40.9318L99.7159 65.3636L79.6875 114.227H77.983L37.9261 16.5Z" fill="#2D3748"/>
<defs>
<filter id="filter0_d_4009_85" x="196.548" y="0.0454407" width="161.662" height="185.455" filterUnits="userSpaceOnUse" color-interpolation-filters="sRGB">
<feFlood flood-opacity="0" result="BackgroundImageFix"/>
<feColorMatrix in="SourceAlpha" type="matrix" values="0 0 0 0 0 0 0 0 0 0 0 0 0 0 0 0 0 0 127 0" result="hardAlpha"/>
<feOffset dy="4"/>
<feGaussianBlur stdDeviation="10"/>
<feComposite in2="hardAlpha" operator="out"/>
<feColorMatrix type="matrix" values="0 0 0 0 0 0 0 0 0 0 0 0 0 0 0 0 0 0 0.25 0"/>
<feBlend mode="normal" in2="BackgroundImageFix" result="effect1_dropShadow_4009_85"/>
<feBlend mode="normal" in="SourceGraphic" in2="effect1_dropShadow_4009_85" result="shape"/>
</filter>
</defs>
</svg>
