<svg width="979" height="155" viewBox="0 0 979 155" fill="none" xmlns="http://www.w3.org/2000/svg">
<path d="M899.383 91.7461V152H928.191V91.9414L979 0.5L931 15L940.754 20.5L935.491 29.5635L923.455 50.291L899.383 91.7461Z" fill="black"/>
<path d="M893.323 82.165L908.714 55.5225L908.629 55.3868L908.461 55.1155L908.123 54.5728L907.448 53.4873L906.097 51.3164L897.674 37.1562L880.828 8.83594H846.941L873.162 50.291L886.272 71.0186L892.828 81.3823L893.237 82.0301L893.323 82.165Z" fill="black"/>
<path d="M795.573 97.6834V73.8958H857V130.139C851.031 135.917 842.365 141.021 831.004 145.451C819.708 149.817 808.25 152 796.632 152C781.869 152 769 148.918 758.024 142.755C747.048 136.527 738.8 127.667 733.28 116.174C727.76 104.617 725 92.0655 725 78.5185C725 63.8157 728.081 50.7502 734.243 39.3219C740.405 27.8936 749.423 19.1297 761.298 13.0303C770.348 8.34345 781.613 6 795.092 6C812.615 6 826.287 9.69173 836.107 17.0752C845.992 24.3945 852.346 34.5387 855.171 47.5079L826.864 52.8048C824.875 45.8707 821.12 40.4134 815.6 36.4327C810.144 32.3879 803.308 30.3654 795.092 30.3654C782.64 30.3654 772.723 34.314 765.341 42.2111C758.024 50.1082 754.365 61.8254 754.365 77.3628C754.365 94.1201 758.088 106.704 765.534 115.115C772.98 123.461 782.736 127.635 794.803 127.635C800.772 127.635 806.742 126.479 812.711 124.168C818.745 121.792 823.912 118.935 828.212 115.596V97.6834H795.573Z" fill="black"/>
<path d="M576 79.8668C576 65.4851 578.152 53.4147 582.455 43.6557C585.666 36.4648 590.034 30.0123 595.558 24.2982C601.146 18.584 607.247 14.3465 613.863 11.5858C622.662 7.86192 632.81 6 644.307 6C665.117 6 681.753 12.4525 694.213 25.3575C706.738 38.2625 713 56.2076 713 79.1926C713 101.985 706.802 119.834 694.406 132.739C682.01 145.58 665.439 152 644.693 152C623.69 152 606.99 145.612 594.594 132.835C582.198 119.994 576 102.338 576 79.8668ZM605.385 78.9037C605.385 94.8905 609.078 107.025 616.464 115.307C623.85 123.526 633.228 127.635 644.596 127.635C655.965 127.635 665.278 123.558 672.536 115.404C679.858 107.186 683.519 94.8905 683.519 78.5185C683.519 62.3391 679.954 50.2687 672.825 42.3074C665.76 34.3461 656.35 30.3654 644.596 30.3654C632.842 30.3654 623.369 34.4103 616.175 42.5C608.981 50.5255 605.385 62.6601 605.385 78.9037Z" fill="black"/>
<path d="M476.973 152V10.0078H505.879V127.879H577.754V152H476.973Z" fill="black"/>
<path d="M348 81C348 66.6183 348 59 348 48C348 40.5 348 32.5 348 24C353.588 18.2858 359.247 14.3465 365.863 11.5858C374.662 7.86192 384.81 6 396.307 6C417.117 6 433.753 12.4525 446.213 25.3575C458.738 38.2625 465 56.2076 465 79.1926C465 101.985 458.802 119.834 446.406 132.739C434.01 145.58 417.439 152 396.693 152C375.69 152 360.396 146.777 348 134C348 121.665 348 103.471 348 81ZM357.385 78.9037C357.385 94.8905 361.078 107.025 368.464 115.307C375.85 123.526 385.228 127.635 396.596 127.635C407.965 127.635 417.278 123.558 424.536 115.404C431.858 107.186 435.519 94.8905 435.519 78.5185C435.519 62.3391 431.954 50.2687 424.825 42.3074C417.76 34.3461 408.35 30.3654 396.596 30.3654C384.843 30.3654 375.369 34.4103 368.175 42.5C360.982 50.5255 357.385 62.6601 357.385 78.9037Z" fill="black"/>
<path d="M338.21 6.54547V152H311.648L248.367 60.4517H247.301V101L216.548 98.5V6.54547H243.537L306.321 98.0227H307.599V6.54547H338.21Z" fill="black"/>
<path d="M216.494 98.3778L247.247 101.006C247.247 111.612 244.713 120.892 239.647 128.847C234.628 136.801 227.597 143.004 218.553 147.455C209.51 151.858 198.975 154.06 186.948 154.06C174.874 154.06 164.316 151.858 155.272 147.455C146.229 143.004 139.197 136.801 134.178 128.847C129.159 120.892 126.65 111.612 126.65 101.006V84L157.403 7.25453V98.3778C157.403 103.918 158.61 108.842 161.025 113.151C163.487 117.459 166.943 120.845 171.394 123.307C175.845 125.769 181.03 127 186.948 127C192.914 127 198.099 125.769 202.502 123.307C206.953 120.845 210.386 117.459 212.8 113.151C215.263 108.842 216.494 103.918 216.494 98.3778Z" fill="black"/>
<path d="M37.9261 7H0V152.455H29.8295V57.4261H31.0369L68.679 151.744H88.9915L126.634 57.7812L147 7L124.5 17.5L101.5 28L109.73 31.4318L99.7159 55.8636L79.6875 104.727H77.983L37.9261 7Z" fill="black"/>
</svg>
