<svg width="979" height="188" viewBox="0 0 979 188" fill="none" xmlns="http://www.w3.org/2000/svg">
<path d="M899.383 105.246V165.5H928.191V105.441L979 14L931 28.5L940.754 34L935.491 43.0635L923.455 63.791L899.383 105.246Z" fill="#4A5568"/>
<path d="M893.323 95.665L908.714 69.0225L908.629 68.8868L908.461 68.6155L908.123 68.0728L907.448 66.9873L906.097 64.8164L897.674 50.6562L880.828 22.3359H846.941L873.162 63.791L886.272 84.5186L892.828 94.8823L893.237 95.5301L893.323 95.665Z" fill="#4A5568"/>
<path d="M795.573 111.183V87.3958H857V143.639C851.031 149.417 842.365 154.521 831.004 158.951C819.708 163.317 808.25 165.5 796.632 165.5C781.869 165.5 769 162.418 758.024 156.255C747.048 150.027 738.8 141.167 733.28 129.674C727.76 118.117 725 105.566 725 92.0185C725 77.3157 728.081 64.2502 734.243 52.8219C740.405 41.3936 749.423 32.6297 761.298 26.5303C770.348 21.8434 781.613 19.5 795.092 19.5C812.615 19.5 826.287 23.1917 836.107 30.5752C845.992 37.8945 852.346 48.0387 855.171 61.0079L826.864 66.3048C824.875 59.3707 821.12 53.9134 815.6 49.9327C810.144 45.8879 803.308 43.8654 795.092 43.8654C782.64 43.8654 772.723 47.814 765.341 55.7111C758.024 63.6082 754.365 75.3254 754.365 90.8628C754.365 107.62 758.088 120.204 765.534 128.615C772.98 136.961 782.736 141.135 794.803 141.135C800.772 141.135 806.742 139.979 812.711 137.668C818.745 135.292 823.912 132.435 828.212 129.096V111.183H795.573Z" fill="#4A5568"/>
<path d="M576 93.3668C576 78.9851 578.152 66.9147 582.455 57.1557C585.666 49.9648 590.034 43.5123 595.558 37.7982C601.146 32.084 607.247 27.8465 613.863 25.0858C622.662 21.3619 632.81 19.5 644.307 19.5C665.117 19.5 681.753 25.9525 694.213 38.8575C706.738 51.7625 713 69.7076 713 92.6926C713 115.485 706.802 133.334 694.406 146.239C682.01 159.08 665.439 165.5 644.693 165.5C623.69 165.5 606.99 159.112 594.594 146.335C582.198 133.494 576 115.838 576 93.3668ZM605.385 92.4037C605.385 108.391 609.078 120.525 616.464 128.807C623.85 137.026 633.228 141.135 644.596 141.135C655.965 141.135 665.278 137.058 672.536 128.904C679.858 120.686 683.519 108.391 683.519 92.0185C683.519 75.8391 679.954 63.7687 672.825 55.8074C665.76 47.8461 656.35 43.8654 644.596 43.8654C632.842 43.8654 623.369 47.9103 616.175 56C608.981 64.0255 605.385 76.1601 605.385 92.4037Z" fill="#4A5568"/>
<path d="M476.973 165.5V23.5078H505.879V141.379H577.754V165.5H476.973Z" fill="#4A5568"/>
<path d="M328 93.3668C328 78.9851 330.152 66.9147 334.455 57.1557C337.666 49.9648 342.034 43.5123 347.558 37.7982C353.146 32.084 359.247 27.8465 365.863 25.0858C374.662 21.3619 384.81 19.5 396.307 19.5C417.117 19.5 433.753 25.9525 446.213 38.8575C458.738 51.7625 465 69.7076 465 92.6926C465 115.485 458.802 133.334 446.406 146.239C434.01 159.08 417.439 165.5 396.693 165.5C375.69 165.5 358.99 159.112 346.594 146.335C334.198 133.494 328 115.838 328 93.3668ZM357.385 92.4037C357.385 108.391 361.078 120.525 368.464 128.807C375.85 137.026 385.228 141.135 396.596 141.135C407.965 141.135 417.278 137.058 424.536 128.904C431.858 120.686 435.519 108.391 435.519 92.0185C435.519 75.8391 431.954 63.7687 424.825 55.8074C417.76 47.8461 408.35 43.8654 396.596 43.8654C384.842 43.8654 375.369 47.9103 368.175 56C360.981 64.0255 357.385 76.1601 357.385 92.4037Z" fill="#4A5568"/>
<g filter="url(#filter0_d_4018_8)">
<path d="M306.321 111.522H307.6V20.0459H338.21V165.5H311.647L248.366 73.9521H247.301L247.246 114.506C247.246 125.112 244.714 134.392 239.647 142.347C234.629 150.301 227.597 156.503 218.554 160.954C209.51 165.358 198.975 167.56 186.948 167.56C174.874 167.56 164.316 165.357 155.272 160.954C146.229 156.503 139.198 150.301 134.179 142.347C129.16 134.392 126.649 125.112 126.649 114.506V97.5L157.402 20.7549V111.878C157.402 117.418 158.61 122.342 161.024 126.65C163.487 130.959 166.944 134.345 171.395 136.807C175.845 139.269 181.03 140.5 186.948 140.5C192.914 140.5 198.099 139.269 202.502 136.807C206.953 134.345 210.386 130.959 212.801 126.65C215.263 122.342 216.493 117.418 216.493 111.878L216.548 20.0459H243.537L306.321 111.522Z" fill="#2D3748"/>
</g>
<path d="M37.9261 20.5H0V165.955H29.8295V70.9261H31.0369L68.679 165.244H88.9915L126.634 71.2812L147 20.5L124.5 31L101.5 41.5L109.73 44.9318L99.7159 69.3636L79.6875 118.227H77.983L37.9261 20.5Z" fill="#2D3748"/>
<defs>
<filter id="filter0_d_4018_8" x="106.649" y="0.0458984" width="251.561" height="187.514" filterUnits="userSpaceOnUse" color-interpolation-filters="sRGB">
<feFlood flood-opacity="0" result="BackgroundImageFix"/>
<feColorMatrix in="SourceAlpha" type="matrix" values="0 0 0 0 0 0 0 0 0 0 0 0 0 0 0 0 0 0 127 0" result="hardAlpha"/>
<feOffset/>
<feGaussianBlur stdDeviation="10"/>
<feComposite in2="hardAlpha" operator="out"/>
<feColorMatrix type="matrix" values="0 0 0 0 0 0 0 0 0 0 0 0 0 0 0 0 0 0 0.25 0"/>
<feBlend mode="normal" in2="BackgroundImageFix" result="effect1_dropShadow_4018_8"/>
<feBlend mode="normal" in="SourceGraphic" in2="effect1_dropShadow_4018_8" result="shape"/>
</filter>
</defs>
</svg>
