<svg width="979" height="154" viewBox="0 0 979 154" fill="none" xmlns="http://www.w3.org/2000/svg">
<path d="M899.383 91.2461V151.5H928.191V91.4414L979 0L931 14.5L940.754 20L935.491 29.0635L923.455 49.791L899.383 91.2461Z" fill="black"/>
<path d="M893.323 81.665L908.714 55.0225L908.629 54.8868L908.461 54.6155L908.123 54.0728L907.448 52.9873L906.097 50.8164L897.674 36.6562L880.828 8.33594H846.941L873.162 49.791L886.272 70.5186L892.828 80.8823L893.237 81.5301L893.323 81.665Z" fill="black"/>
<path d="M795.573 97.1834V73.3958H857V129.639C851.031 135.417 842.365 140.521 831.004 144.951C819.708 149.317 808.25 151.5 796.632 151.5C781.869 151.5 769 148.418 758.024 142.255C747.048 136.027 738.8 127.167 733.28 115.674C727.76 104.117 725 91.5655 725 78.0185C725 63.3157 728.081 50.2502 734.243 38.8219C740.405 27.3936 749.423 18.6297 761.298 12.5303C770.348 7.84345 781.613 5.5 795.092 5.5C812.615 5.5 826.287 9.19173 836.107 16.5752C845.992 23.8945 852.346 34.0387 855.171 47.0079L826.864 52.3048C824.875 45.3707 821.12 39.9134 815.6 35.9327C810.144 31.8879 803.308 29.8654 795.092 29.8654C782.64 29.8654 772.723 33.814 765.341 41.7111C758.024 49.6082 754.365 61.3254 754.365 76.8628C754.365 93.6201 758.088 106.204 765.534 114.615C772.98 122.961 782.736 127.135 794.803 127.135C800.772 127.135 806.742 125.979 812.711 123.668C818.745 121.292 823.912 118.435 828.212 115.096V97.1834H795.573Z" fill="black"/>
<path d="M576 79.3668C576 64.9851 578.152 52.9147 582.455 43.1557C585.666 35.9648 590.034 29.5123 595.558 23.7982C601.146 18.084 607.247 13.8465 613.863 11.0858C622.662 7.36192 632.81 5.5 644.307 5.5C665.117 5.5 681.753 11.9525 694.213 24.8575C706.738 37.7625 713 55.7076 713 78.6926C713 101.485 706.802 119.334 694.406 132.239C682.01 145.08 665.439 151.5 644.693 151.5C623.69 151.5 606.99 145.112 594.594 132.335C582.198 119.494 576 101.838 576 79.3668ZM605.385 78.4037C605.385 94.3905 609.078 106.525 616.464 114.807C623.85 123.026 633.228 127.135 644.596 127.135C655.965 127.135 665.278 123.058 672.536 114.904C679.858 106.686 683.519 94.3905 683.519 78.0185C683.519 61.8391 679.954 49.7687 672.825 41.8074C665.76 33.8461 656.35 29.8654 644.596 29.8654C632.842 29.8654 623.369 33.9103 616.175 42C608.981 50.0255 605.385 62.1601 605.385 78.4037Z" fill="black"/>
<path d="M476.973 151.5V9.50781H505.879V127.379H577.754V151.5H476.973Z" fill="black"/>
<path d="M348 80.5C348 66.1183 348 58.5 348 47.5C348 40 348 32 348 23.5C353.588 17.7858 359.247 13.8465 365.863 11.0858C374.662 7.36192 384.81 5.5 396.307 5.5C417.117 5.5 433.753 11.9525 446.213 24.8575C458.738 37.7625 465 55.7076 465 78.6926C465 101.485 458.802 119.334 446.406 132.239C434.01 145.08 417.439 151.5 396.693 151.5C375.69 151.5 360.396 146.277 348 133.5C348 121.165 348 102.971 348 80.5ZM357.385 78.4037C357.385 94.3905 361.078 106.525 368.464 114.807C375.85 123.026 385.228 127.135 396.596 127.135C407.965 127.135 417.278 123.058 424.536 114.904C431.858 106.686 435.519 94.3905 435.519 78.0185C435.519 61.8391 431.954 49.7687 424.825 41.8074C417.76 33.8461 408.35 29.8654 396.596 29.8654C384.843 29.8654 375.369 33.9103 368.175 42C360.982 50.0255 357.385 62.1601 357.385 78.4037Z" fill="black"/>
<path d="M306.321 97.5225H307.6V6.0459H338.21V151.5H311.647L248.366 59.9521H247.301L247.246 100.506C247.246 111.112 244.714 120.392 239.647 128.347C234.629 136.301 227.597 142.503 218.554 146.954C209.51 151.358 198.975 153.56 186.948 153.56C174.874 153.56 164.316 151.357 155.272 146.954C146.229 142.503 139.198 136.301 134.179 128.347C129.16 120.392 126.649 111.112 126.649 100.506V83.5L157.402 6.75488V97.8779C157.402 103.418 158.61 108.342 161.024 112.65C163.487 116.959 166.944 120.345 171.395 122.807C175.845 125.269 181.03 126.5 186.948 126.5C192.914 126.5 198.099 125.269 202.502 122.807C206.953 120.345 210.386 116.959 212.801 112.65C215.263 108.342 216.493 103.418 216.493 97.8779L216.548 6.0459H243.537L306.321 97.5225Z" fill="black"/>
<path d="M37.9261 6.5H0V151.955H29.8295V56.9261H31.0369L68.679 151.244H88.9915L126.634 57.2812L147 6.5L124.5 17L101.5 27.5L109.73 30.9318L99.7159 55.3636L79.6875 104.227H77.983L37.9261 6.5Z" fill="black"/>
</svg>
