<svg width="1019" height="195" viewBox="0 0 1019 195" fill="none" xmlns="http://www.w3.org/2000/svg">
<g filter="url(#filter0_d_4014_146)">
<path d="M919.383 111.746V172H948.191V111.941L999 20.5L951 35L960.754 40.5L955.491 49.5635L943.455 70.291L919.383 111.746Z" fill="white"/>
<path d="M913.323 102.165L928.714 75.5225L928.629 75.3868L928.461 75.1155L928.123 74.5728L927.448 73.4873L926.097 71.3164L917.674 57.1562L900.828 28.8359H866.941L893.162 70.291L906.272 91.0186L912.828 101.382L913.237 102.03L913.323 102.165Z" fill="white"/>
<path d="M815.573 117.683V93.8958H877V150.139C871.031 155.917 862.365 161.021 851.004 165.451C839.708 169.817 828.25 172 816.632 172C801.869 172 789 168.918 778.024 162.755C767.048 156.527 758.8 147.667 753.28 136.174C747.76 124.617 745 112.066 745 98.5185C745 83.8157 748.081 70.7502 754.243 59.3219C760.405 47.8936 769.423 39.1297 781.298 33.0303C790.348 28.3434 801.613 26 815.092 26C832.615 26 846.287 29.6917 856.107 37.0752C865.992 44.3945 872.346 54.5387 875.171 67.5079L846.864 72.8048C844.875 65.8707 841.12 60.4134 835.6 56.4327C830.144 52.3879 823.308 50.3654 815.092 50.3654C802.64 50.3654 792.723 54.314 785.341 62.2111C778.024 70.1082 774.365 81.8254 774.365 97.3628C774.365 114.12 778.088 126.704 785.534 135.115C792.98 143.461 802.736 147.635 814.803 147.635C820.772 147.635 826.742 146.479 832.711 144.168C838.745 141.792 843.912 138.935 848.212 135.596V117.683H815.573Z" fill="white"/>
<path d="M596 99.8668C596 85.4851 598.152 73.4147 602.455 63.6557C605.666 56.4648 610.034 50.0123 615.558 44.2982C621.146 38.584 627.247 34.3465 633.863 31.5858C642.662 27.8619 652.81 26 664.307 26C685.117 26 701.753 32.4525 714.213 45.3575C726.738 58.2625 733 76.2076 733 99.1926C733 121.985 726.802 139.834 714.406 152.739C702.01 165.58 685.439 172 664.693 172C643.69 172 626.99 165.612 614.594 152.835C602.198 139.994 596 122.338 596 99.8668ZM625.385 98.9037C625.385 114.891 629.078 127.025 636.464 135.307C643.85 143.526 653.228 147.635 664.596 147.635C675.965 147.635 685.278 143.558 692.536 135.404C699.858 127.186 703.519 114.891 703.519 98.5185C703.519 82.3391 699.954 70.2687 692.825 62.3074C685.76 54.3461 676.35 50.3654 664.596 50.3654C652.842 50.3654 643.369 54.4103 636.175 62.5C628.981 70.5255 625.385 82.6601 625.385 98.9037Z" fill="white"/>
<path d="M496.973 172V30.0078H525.879V147.879H597.754V172H496.973Z" fill="white"/>
<path d="M368 101C368 86.6183 368 79 368 68C368 60.5 368 52.5 368 44C373.588 38.2858 379.247 34.3465 385.863 31.5858C394.662 27.8619 404.81 26 416.307 26C437.117 26 453.753 32.4525 466.213 45.3575C478.738 58.2625 485 76.2076 485 99.1926C485 121.985 478.802 139.834 466.406 152.739C454.01 165.58 437.439 172 416.693 172C395.69 172 380.396 166.777 368 154C368 141.665 368 123.471 368 101ZM377.385 98.9037C377.385 114.891 381.078 127.025 388.464 135.307C395.85 143.526 405.228 147.635 416.596 147.635C427.965 147.635 437.278 143.558 444.536 135.404C451.858 127.186 455.519 114.891 455.519 98.5185C455.519 82.3391 451.954 70.2687 444.825 62.3074C437.76 54.3461 428.35 50.3654 416.596 50.3654C404.842 50.3654 395.369 54.4103 388.175 62.5C380.981 70.5255 377.385 82.6601 377.385 98.9037Z" fill="white"/>
<path d="M326.321 118.022H327.6V26.5459H358.21V172H331.647L268.366 80.4521H267.301L267.246 121.006C267.246 131.612 264.714 140.892 259.647 148.847C254.629 156.801 247.597 163.003 238.554 167.454C229.51 171.858 218.975 174.06 206.948 174.06C194.874 174.06 184.316 171.857 175.272 167.454C166.229 163.003 159.198 156.801 154.179 148.847C149.16 140.892 146.649 131.612 146.649 121.006V104L177.402 27.2549V118.378C177.402 123.918 178.61 128.842 181.024 133.15C183.487 137.459 186.944 140.845 191.395 143.307C195.845 145.769 201.03 147 206.948 147C212.914 147 218.099 145.769 222.502 143.307C226.953 140.845 230.386 137.459 232.801 133.15C235.263 128.842 236.493 123.918 236.493 118.378L236.548 26.5459H263.537L326.321 118.022Z" fill="white"/>
<path d="M57.9261 27H20V172.455H49.8295V77.4261H51.0369L88.679 171.744H108.991L146.634 77.7812L167 27L144.5 37.5L121.5 48L129.73 51.4318L119.716 75.8636L99.6875 124.727H97.983L57.9261 27Z" fill="white"/>
</g>
<defs>
<filter id="filter0_d_4014_146" x="0" y="0.5" width="1019" height="193.56" filterUnits="userSpaceOnUse" color-interpolation-filters="sRGB">
<feFlood flood-opacity="0" result="BackgroundImageFix"/>
<feColorMatrix in="SourceAlpha" type="matrix" values="0 0 0 0 0 0 0 0 0 0 0 0 0 0 0 0 0 0 127 0" result="hardAlpha"/>
<feOffset/>
<feGaussianBlur stdDeviation="10"/>
<feComposite in2="hardAlpha" operator="out"/>
<feColorMatrix type="matrix" values="0 0 0 0 0 0 0 0 0 0 0 0 0 0 0 0 0 0 0.25 0"/>
<feBlend mode="normal" in2="BackgroundImageFix" result="effect1_dropShadow_4014_146"/>
<feBlend mode="normal" in="SourceGraphic" in2="effect1_dropShadow_4014_146" result="shape"/>
</filter>
</defs>
</svg>
