<svg width="979" height="186" viewBox="0 0 979 186" fill="none" xmlns="http://www.w3.org/2000/svg">
<path d="M899.383 101.746V162H928.191V101.941L979 10.5L931 25L940.754 30.5L935.491 39.5635L923.455 60.291L899.383 101.746Z" fill="#A8B2C5"/>
<path d="M893.323 92.165L908.714 65.5225L908.629 65.3868L908.461 65.1155L908.123 64.5728L907.448 63.4873L906.097 61.3164L897.674 47.1562L880.828 18.8359H846.941L873.162 60.291L886.272 81.0186L892.828 91.3823L893.237 92.0301L893.323 92.165Z" fill="#A8B2C5"/>
<path d="M795.573 107.683V83.8958H857V140.139C851.031 145.917 842.365 151.021 831.004 155.451C819.708 159.817 808.25 162 796.632 162C781.869 162 769 158.918 758.024 152.755C747.048 146.527 738.8 137.667 733.28 126.174C727.76 114.617 725 102.066 725 88.5185C725 73.8157 728.081 60.7502 734.243 49.3219C740.405 37.8936 749.423 29.1297 761.298 23.0303C770.348 18.3434 781.613 16 795.092 16C812.615 16 826.287 19.6917 836.107 27.0752C845.992 34.3945 852.346 44.5387 855.171 57.5079L826.864 62.8048C824.875 55.8707 821.12 50.4134 815.6 46.4327C810.144 42.3879 803.308 40.3654 795.092 40.3654C782.64 40.3654 772.723 44.314 765.341 52.2111C758.024 60.1082 754.365 71.8254 754.365 87.3628C754.365 104.12 758.088 116.704 765.534 125.115C772.98 133.461 782.736 137.635 794.803 137.635C800.772 137.635 806.742 136.479 812.711 134.168C818.745 131.792 823.912 128.935 828.212 125.596V107.683H795.573Z" fill="#A8B2C5"/>
<path d="M576 89.8668C576 75.4851 578.152 63.4147 582.455 53.6557C585.666 46.4648 590.034 40.0123 595.558 34.2982C601.146 28.584 607.247 24.3465 613.863 21.5858C622.662 17.8619 632.81 16 644.307 16C665.117 16 681.753 22.4525 694.213 35.3575C706.738 48.2625 713 66.2076 713 89.1926C713 111.985 706.802 129.834 694.406 142.739C682.01 155.58 665.439 162 644.693 162C623.69 162 606.99 155.612 594.594 142.835C582.198 129.994 576 112.338 576 89.8668ZM605.385 88.9037C605.385 104.891 609.078 117.025 616.464 125.307C623.85 133.526 633.228 137.635 644.596 137.635C655.965 137.635 665.278 133.558 672.536 125.404C679.858 117.186 683.519 104.891 683.519 88.5185C683.519 72.3391 679.954 60.2687 672.825 52.3074C665.76 44.3461 656.35 40.3654 644.596 40.3654C632.842 40.3654 623.369 44.4103 616.175 52.5C608.981 60.5255 605.385 72.6601 605.385 88.9037Z" fill="#A8B2C5"/>
<path d="M476.973 162V20.0078H505.879V137.879H577.754V162H476.973Z" fill="#A8B2C5"/>
<path d="M328 89.8668C328 75.4851 330.152 63.4147 334.455 53.6557C337.666 46.4648 342.034 40.0123 347.558 34.2982C353.146 28.584 359.247 24.3465 365.863 21.5858C374.662 17.8619 384.81 16 396.307 16C417.117 16 433.753 22.4525 446.213 35.3575C458.738 48.2625 465 66.2076 465 89.1926C465 111.985 458.802 129.834 446.406 142.739C434.01 155.58 417.439 162 396.693 162C375.69 162 358.99 155.612 346.594 142.835C334.198 129.994 328 112.338 328 89.8668ZM357.385 88.9037C357.385 104.891 361.078 117.025 368.464 125.307C375.85 133.526 385.228 137.635 396.596 137.635C407.965 137.635 417.278 133.558 424.536 125.404C431.858 117.186 435.519 104.891 435.519 88.5185C435.519 72.3391 431.954 60.2687 424.825 52.3074C417.76 44.3461 408.35 40.3654 396.596 40.3654C384.842 40.3654 375.369 44.4103 368.175 52.5C360.981 60.5255 357.385 72.6601 357.385 88.9037Z" fill="#A8B2C5"/>
<g filter="url(#filter0_d_4014_135)">
<path d="M338.21 16.5454V162H311.648L248.366 70.4517H247.301V111L216.548 108.5V16.5454H243.537L306.321 108.023H307.599V16.5454H338.21Z" fill="#E0E6F1"/>
</g>
<path d="M216.494 108.378L247.246 111.006C247.246 121.612 244.713 130.892 239.647 138.847C234.628 146.801 227.597 153.004 218.553 157.455C209.51 161.858 198.975 164.06 186.948 164.06C174.874 164.06 164.316 161.858 155.272 157.455C146.228 153.004 139.197 146.801 134.178 138.847C129.159 130.892 126.65 121.612 126.65 111.006V94L157.403 17.2545V108.378C157.403 113.918 158.61 118.842 161.025 123.151C163.487 127.459 166.943 130.845 171.394 133.307C175.845 135.769 181.03 137 186.948 137C192.914 137 198.099 135.769 202.502 133.307C206.953 130.845 210.386 127.459 212.8 123.151C215.263 118.842 216.494 113.918 216.494 108.378Z" fill="#E0E6F1"/>
<path d="M37.9261 17H0V162.455H29.8295V67.4261H31.0369L68.679 161.744H88.9915L126.634 67.7812L147 17L124.5 27.5L101.5 38L109.73 41.4318L99.7159 65.8636L79.6875 114.727H77.983L37.9261 17Z" fill="#E0E6F1"/>
<defs>
<filter id="filter0_d_4014_135" x="196.548" y="0.545441" width="161.662" height="185.455" filterUnits="userSpaceOnUse" color-interpolation-filters="sRGB">
<feFlood flood-opacity="0" result="BackgroundImageFix"/>
<feColorMatrix in="SourceAlpha" type="matrix" values="0 0 0 0 0 0 0 0 0 0 0 0 0 0 0 0 0 0 127 0" result="hardAlpha"/>
<feOffset dy="4"/>
<feGaussianBlur stdDeviation="10"/>
<feComposite in2="hardAlpha" operator="out"/>
<feColorMatrix type="matrix" values="0 0 0 0 0 0 0 0 0 0 0 0 0 0 0 0 0 0 0.25 0"/>
<feBlend mode="normal" in2="BackgroundImageFix" result="effect1_dropShadow_4014_135"/>
<feBlend mode="normal" in="SourceGraphic" in2="effect1_dropShadow_4014_135" result="shape"/>
</filter>
</defs>
</svg>
